<svg xmlns="http://www.w3.org/2000/svg" viewBox="0 0 120 120" role="img" aria-label="Google logo">
  <rect width="120" height="120" fill="#fff"/>
  <circle cx="60" cy="60" r="42" fill="#4285f4"/>
  <path d="M60 18a42 42 0 0 0-42 42h42z" fill="#ea4335"/>
  <path d="M18 60a42 42 0 0 0 42 42V60z" fill="#fbbc05"/>
  <path d="M60 102a42 42 0 0 0 42-42H60z" fill="#34a853"/>
  <circle cx="60" cy="60" r="25" fill="#fff"/>
  <path d="M81.7 61.6c0-2-.2-3.7-.5-5.4H61v10.3h11.6c-.5 2.8-2.1 5.1-4.4 6.7v8.8h7.1c4.2-3.9 6.4-9.7 6.4-20.4z" fill="#4285f4"/>
  <path d="M61 83.3c6 0 11.1-2 14.8-5.4l-7.1-8.8c-2 1.3-4.5 2.1-7.7 2.1-5.9 0-10.8-4-12.6-9.3h-7.4v8.8c3.7 7.4 11.3 12.6 20 12.6z" fill="#34a853"/>
  <path d="M48.4 61.9c-.5-1.3-.7-2.8-.7-4.3s.3-3 .7-4.3v-8.8h-7.4a22.2 22.2 0 0 0 0 26.2z" fill="#fbbc05"/>
  <path d="M61 43.9c3.3 0 6.3 1.1 8.6 3.4l6.4-6.4c-3.9-3.6-9-5.9-15-5.9-8.7 0-16.3 5.1-20 12.6l7.4 8.8c1.8-5.4 6.7-12.5 12.6-12.5z" fill="#ea4335"/>
</svg>
